<mxfile host="app.diagrams.net" agent="Mozilla/5.0 (Windows NT 10.0; Win64; x64) AppleWebKit/537.36 (KHTML, like Gecko) Chrome/134.0.0.0 Safari/537.36" version="26.1.0" pages="2">
  <diagram name="Page-1" id="e56a1550-8fbb-45ad-956c-1786394a9013">
    <mxGraphModel grid="0" page="0" gridSize="10" guides="1" tooltips="1" connect="1" arrows="1" fold="1" pageScale="1" pageWidth="1100" pageHeight="850" background="none" math="0" shadow="0">
      <root>
        <mxCell id="0" />
        <mxCell id="1" parent="0" />
        <mxCell id="2e49270ec7c68f3f-80" value="Cost" style="swimlane;html=1;fontStyle=0;childLayout=stackLayout;horizontal=1;startSize=26;fillColor=#e0e0e0;horizontalStack=0;resizeParent=1;resizeLast=0;collapsible=1;marginBottom=0;swimlaneFillColor=#ffffff;align=center;rounded=0;shadow=0;comic=0;labelBackgroundColor=none;strokeWidth=1;fontFamily=Verdana;fontSize=14" vertex="1" parent="1">
          <mxGeometry x="255" y="500" width="191" height="160" as="geometry" />
        </mxCell>
        <mxCell id="2e49270ec7c68f3f-81" value="int tile_id" style="shape=partialRectangle;top=0;left=0;right=0;bottom=1;html=1;align=left;verticalAlign=middle;fillColor=none;spacingLeft=34;spacingRight=4;whiteSpace=wrap;overflow=hidden;rotatable=0;points=[[0,0.5],[1,0.5]];portConstraint=eastwest;dropTarget=0;fontStyle=5;" vertex="1" parent="2e49270ec7c68f3f-80">
          <mxGeometry y="26" width="191" height="30" as="geometry" />
        </mxCell>
        <mxCell id="2e49270ec7c68f3f-82" value="PK" style="shape=partialRectangle;top=0;left=0;bottom=0;html=1;fillColor=none;align=left;verticalAlign=middle;spacingLeft=4;spacingRight=4;whiteSpace=wrap;overflow=hidden;rotatable=0;points=[];portConstraint=eastwest;part=1;" vertex="1" connectable="0" parent="2e49270ec7c68f3f-81">
          <mxGeometry width="30" height="30" as="geometry" />
        </mxCell>
        <mxCell id="2e49270ec7c68f3f-83" value="double tile_cost" style="shape=partialRectangle;top=0;left=0;right=0;bottom=0;html=1;align=left;verticalAlign=top;fillColor=none;spacingLeft=34;spacingRight=4;whiteSpace=wrap;overflow=hidden;rotatable=0;points=[[0,0.5],[1,0.5]];portConstraint=eastwest;dropTarget=0;" vertex="1" parent="2e49270ec7c68f3f-80">
          <mxGeometry y="56" width="191" height="26" as="geometry" />
        </mxCell>
        <mxCell id="2e49270ec7c68f3f-84" value="" style="shape=partialRectangle;top=0;left=0;bottom=0;html=1;fillColor=none;align=left;verticalAlign=top;spacingLeft=4;spacingRight=4;whiteSpace=wrap;overflow=hidden;rotatable=0;points=[];portConstraint=eastwest;part=1;" vertex="1" connectable="0" parent="2e49270ec7c68f3f-83">
          <mxGeometry width="30" height="26" as="geometry" />
        </mxCell>
        <mxCell id="iBcIFzz1JDC8RSLhJRtD-24" value="double&amp;nbsp;tiling_lay_gront_cost" style="shape=partialRectangle;top=0;left=0;right=0;bottom=0;html=1;align=left;verticalAlign=top;fillColor=none;spacingLeft=34;spacingRight=4;whiteSpace=wrap;overflow=hidden;rotatable=0;points=[[0,0.5],[1,0.5]];portConstraint=eastwest;dropTarget=0;" vertex="1" parent="2e49270ec7c68f3f-80">
          <mxGeometry y="82" width="191" height="26" as="geometry" />
        </mxCell>
        <mxCell id="iBcIFzz1JDC8RSLhJRtD-25" value="" style="shape=partialRectangle;top=0;left=0;bottom=0;html=1;fillColor=none;align=left;verticalAlign=top;spacingLeft=4;spacingRight=4;whiteSpace=wrap;overflow=hidden;rotatable=0;points=[];portConstraint=eastwest;part=1;" vertex="1" connectable="0" parent="iBcIFzz1JDC8RSLhJRtD-24">
          <mxGeometry width="30" height="26" as="geometry" />
        </mxCell>
        <mxCell id="iBcIFzz1JDC8RSLhJRtD-26" value="double&amp;nbsp;gront_cost" style="shape=partialRectangle;top=0;left=0;right=0;bottom=0;html=1;align=left;verticalAlign=top;fillColor=none;spacingLeft=34;spacingRight=4;whiteSpace=wrap;overflow=hidden;rotatable=0;points=[[0,0.5],[1,0.5]];portConstraint=eastwest;dropTarget=0;" vertex="1" parent="2e49270ec7c68f3f-80">
          <mxGeometry y="108" width="191" height="26" as="geometry" />
        </mxCell>
        <mxCell id="iBcIFzz1JDC8RSLhJRtD-27" value="" style="shape=partialRectangle;top=0;left=0;bottom=0;html=1;fillColor=none;align=left;verticalAlign=top;spacingLeft=4;spacingRight=4;whiteSpace=wrap;overflow=hidden;rotatable=0;points=[];portConstraint=eastwest;part=1;" vertex="1" connectable="0" parent="iBcIFzz1JDC8RSLhJRtD-26">
          <mxGeometry width="30" height="26" as="geometry" />
        </mxCell>
        <mxCell id="iBcIFzz1JDC8RSLhJRtD-28" value="double&amp;nbsp;adhesive_cost" style="shape=partialRectangle;top=0;left=0;right=0;bottom=0;html=1;align=left;verticalAlign=top;fillColor=none;spacingLeft=34;spacingRight=4;whiteSpace=wrap;overflow=hidden;rotatable=0;points=[[0,0.5],[1,0.5]];portConstraint=eastwest;dropTarget=0;" vertex="1" parent="2e49270ec7c68f3f-80">
          <mxGeometry y="134" width="191" height="26" as="geometry" />
        </mxCell>
        <mxCell id="iBcIFzz1JDC8RSLhJRtD-29" value="" style="shape=partialRectangle;top=0;left=0;bottom=0;html=1;fillColor=none;align=left;verticalAlign=top;spacingLeft=4;spacingRight=4;whiteSpace=wrap;overflow=hidden;rotatable=0;points=[];portConstraint=eastwest;part=1;" vertex="1" connectable="0" parent="iBcIFzz1JDC8RSLhJRtD-28">
          <mxGeometry width="30" height="26" as="geometry" />
        </mxCell>
        <mxCell id="2e49270ec7c68f3f-89" value="" style="shape=partialRectangle;top=0;left=0;right=0;bottom=0;html=1;align=left;verticalAlign=top;fillColor=none;spacingLeft=34;spacingRight=4;whiteSpace=wrap;overflow=hidden;rotatable=0;points=[[0,0.5],[1,0.5]];portConstraint=eastwest;dropTarget=0;" vertex="1" parent="2e49270ec7c68f3f-80">
          <mxGeometry y="160" width="191" as="geometry" />
        </mxCell>
        <mxCell id="2e49270ec7c68f3f-90" value="" style="shape=partialRectangle;top=0;left=0;bottom=0;html=1;fillColor=none;align=left;verticalAlign=top;spacingLeft=4;spacingRight=4;whiteSpace=wrap;overflow=hidden;rotatable=0;points=[];portConstraint=eastwest;part=1;" vertex="1" connectable="0" parent="2e49270ec7c68f3f-89">
          <mxGeometry width="30.157894736842106" as="geometry" />
        </mxCell>
        <mxCell id="iBcIFzz1JDC8RSLhJRtD-30" value="&amp;nbsp;UserTilingScheme" style="swimlane;html=1;fontStyle=0;childLayout=stackLayout;horizontal=1;startSize=26;fillColor=#e0e0e0;horizontalStack=0;resizeParent=1;resizeLast=0;collapsible=1;marginBottom=0;swimlaneFillColor=#ffffff;align=center;rounded=0;shadow=0;comic=0;labelBackgroundColor=none;strokeWidth=1;fontFamily=Verdana;fontSize=14;swimlaneLine=1;" vertex="1" parent="1">
          <mxGeometry x="511" y="350" width="190" height="422" as="geometry">
            <mxRectangle x="510" y="360" width="170" height="30" as="alternateBounds" />
          </mxGeometry>
        </mxCell>
        <mxCell id="iBcIFzz1JDC8RSLhJRtD-31" value="int id" style="shape=partialRectangle;top=0;left=0;right=0;bottom=1;html=1;align=left;verticalAlign=middle;fillColor=none;spacingLeft=34;spacingRight=4;whiteSpace=wrap;overflow=hidden;rotatable=0;points=[[0,0.5],[1,0.5]];portConstraint=eastwest;dropTarget=0;fontStyle=5;" vertex="1" parent="iBcIFzz1JDC8RSLhJRtD-30">
          <mxGeometry y="26" width="190" height="30" as="geometry" />
        </mxCell>
        <mxCell id="iBcIFzz1JDC8RSLhJRtD-32" value="PK" style="shape=partialRectangle;top=0;left=0;bottom=0;html=1;fillColor=none;align=left;verticalAlign=middle;spacingLeft=4;spacingRight=4;whiteSpace=wrap;overflow=hidden;rotatable=0;points=[];portConstraint=eastwest;part=1;" vertex="1" connectable="0" parent="iBcIFzz1JDC8RSLhJRtD-31">
          <mxGeometry width="30" height="30" as="geometry" />
        </mxCell>
        <mxCell id="iBcIFzz1JDC8RSLhJRtD-33" value="int user_id" style="shape=partialRectangle;top=0;left=0;right=0;bottom=0;html=1;align=left;verticalAlign=top;fillColor=none;spacingLeft=34;spacingRight=4;whiteSpace=wrap;overflow=hidden;rotatable=0;points=[[0,0.5],[1,0.5]];portConstraint=eastwest;dropTarget=0;" vertex="1" parent="iBcIFzz1JDC8RSLhJRtD-30">
          <mxGeometry y="56" width="190" height="26" as="geometry" />
        </mxCell>
        <mxCell id="iBcIFzz1JDC8RSLhJRtD-34" value="FK" style="shape=partialRectangle;top=0;left=0;bottom=0;html=1;fillColor=none;align=left;verticalAlign=top;spacingLeft=4;spacingRight=4;whiteSpace=wrap;overflow=hidden;rotatable=0;points=[];portConstraint=eastwest;part=1;" vertex="1" connectable="0" parent="iBcIFzz1JDC8RSLhJRtD-33">
          <mxGeometry width="30" height="26" as="geometry" />
        </mxCell>
        <mxCell id="iBcIFzz1JDC8RSLhJRtD-137" value="varchar name" style="shape=partialRectangle;top=0;left=0;right=0;bottom=0;html=1;align=left;verticalAlign=top;fillColor=none;spacingLeft=34;spacingRight=4;whiteSpace=wrap;overflow=hidden;rotatable=0;points=[[0,0.5],[1,0.5]];portConstraint=eastwest;dropTarget=0;" vertex="1" parent="iBcIFzz1JDC8RSLhJRtD-30">
          <mxGeometry y="82" width="190" height="26" as="geometry" />
        </mxCell>
        <mxCell id="iBcIFzz1JDC8RSLhJRtD-138" value="" style="shape=partialRectangle;top=0;left=0;bottom=0;html=1;fillColor=none;align=left;verticalAlign=top;spacingLeft=4;spacingRight=4;whiteSpace=wrap;overflow=hidden;rotatable=0;points=[];portConstraint=eastwest;part=1;" vertex="1" connectable="0" parent="iBcIFzz1JDC8RSLhJRtD-137">
          <mxGeometry width="30" height="26" as="geometry" />
        </mxCell>
        <mxCell id="iBcIFzz1JDC8RSLhJRtD-155" value="varchar description" style="shape=partialRectangle;top=0;left=0;right=0;bottom=0;html=1;align=left;verticalAlign=top;fillColor=none;spacingLeft=34;spacingRight=4;whiteSpace=wrap;overflow=hidden;rotatable=0;points=[[0,0.5],[1,0.5]];portConstraint=eastwest;dropTarget=0;" vertex="1" parent="iBcIFzz1JDC8RSLhJRtD-30">
          <mxGeometry y="108" width="190" height="26" as="geometry" />
        </mxCell>
        <mxCell id="iBcIFzz1JDC8RSLhJRtD-156" value="" style="shape=partialRectangle;top=0;left=0;bottom=0;html=1;fillColor=none;align=left;verticalAlign=top;spacingLeft=4;spacingRight=4;whiteSpace=wrap;overflow=hidden;rotatable=0;points=[];portConstraint=eastwest;part=1;" vertex="1" connectable="0" parent="iBcIFzz1JDC8RSLhJRtD-155">
          <mxGeometry width="30" height="26" as="geometry" />
        </mxCell>
        <mxCell id="iBcIFzz1JDC8RSLhJRtD-162" value="int area_scheme_id" style="shape=partialRectangle;top=0;left=0;right=0;bottom=0;html=1;align=left;verticalAlign=top;fillColor=none;spacingLeft=34;spacingRight=4;whiteSpace=wrap;overflow=hidden;rotatable=0;points=[[0,0.5],[1,0.5]];portConstraint=eastwest;dropTarget=0;" vertex="1" parent="iBcIFzz1JDC8RSLhJRtD-30">
          <mxGeometry y="134" width="190" height="28" as="geometry" />
        </mxCell>
        <mxCell id="iBcIFzz1JDC8RSLhJRtD-163" value="FK" style="shape=partialRectangle;top=0;left=0;bottom=0;html=1;fillColor=none;align=left;verticalAlign=top;spacingLeft=4;spacingRight=4;whiteSpace=wrap;overflow=hidden;rotatable=0;points=[];portConstraint=eastwest;part=1;" vertex="1" connectable="0" parent="iBcIFzz1JDC8RSLhJRtD-162">
          <mxGeometry width="30" height="28" as="geometry" />
        </mxCell>
        <mxCell id="iBcIFzz1JDC8RSLhJRtD-35" value="varchar tile_class" style="shape=partialRectangle;top=0;left=0;right=0;bottom=0;html=1;align=left;verticalAlign=top;fillColor=none;spacingLeft=34;spacingRight=4;whiteSpace=wrap;overflow=hidden;rotatable=0;points=[[0,0.5],[1,0.5]];portConstraint=eastwest;dropTarget=0;" vertex="1" parent="iBcIFzz1JDC8RSLhJRtD-30">
          <mxGeometry y="162" width="190" height="26" as="geometry" />
        </mxCell>
        <mxCell id="iBcIFzz1JDC8RSLhJRtD-36" value="" style="shape=partialRectangle;top=0;left=0;bottom=0;html=1;fillColor=none;align=left;verticalAlign=top;spacingLeft=4;spacingRight=4;whiteSpace=wrap;overflow=hidden;rotatable=0;points=[];portConstraint=eastwest;part=1;" vertex="1" connectable="0" parent="iBcIFzz1JDC8RSLhJRtD-35">
          <mxGeometry width="30" height="26" as="geometry" />
        </mxCell>
        <mxCell id="iBcIFzz1JDC8RSLhJRtD-37" value="varchar tile_family" style="shape=partialRectangle;top=0;left=0;right=0;bottom=0;html=1;align=left;verticalAlign=top;fillColor=none;spacingLeft=34;spacingRight=4;whiteSpace=wrap;overflow=hidden;rotatable=0;points=[[0,0.5],[1,0.5]];portConstraint=eastwest;dropTarget=0;" vertex="1" parent="iBcIFzz1JDC8RSLhJRtD-30">
          <mxGeometry y="188" width="190" height="26" as="geometry" />
        </mxCell>
        <mxCell id="iBcIFzz1JDC8RSLhJRtD-38" value="" style="shape=partialRectangle;top=0;left=0;bottom=0;html=1;fillColor=none;align=left;verticalAlign=top;spacingLeft=4;spacingRight=4;whiteSpace=wrap;overflow=hidden;rotatable=0;points=[];portConstraint=eastwest;part=1;" vertex="1" connectable="0" parent="iBcIFzz1JDC8RSLhJRtD-37">
          <mxGeometry width="30" height="26" as="geometry" />
        </mxCell>
        <mxCell id="iBcIFzz1JDC8RSLhJRtD-43" value="varchar tile_pattern" style="shape=partialRectangle;top=0;left=0;right=0;bottom=0;html=1;align=left;verticalAlign=top;fillColor=none;spacingLeft=34;spacingRight=4;whiteSpace=wrap;overflow=hidden;rotatable=0;points=[[0,0.5],[1,0.5]];portConstraint=eastwest;dropTarget=0;" vertex="1" parent="iBcIFzz1JDC8RSLhJRtD-30">
          <mxGeometry y="214" width="190" height="26" as="geometry" />
        </mxCell>
        <mxCell id="iBcIFzz1JDC8RSLhJRtD-44" value="" style="shape=partialRectangle;top=0;left=0;bottom=0;html=1;fillColor=none;align=left;verticalAlign=top;spacingLeft=4;spacingRight=4;whiteSpace=wrap;overflow=hidden;rotatable=0;points=[];portConstraint=eastwest;part=1;" vertex="1" connectable="0" parent="iBcIFzz1JDC8RSLhJRtD-43">
          <mxGeometry width="30" height="26" as="geometry" />
        </mxCell>
        <mxCell id="iBcIFzz1JDC8RSLhJRtD-45" value="varchar tile_size" style="shape=partialRectangle;top=0;left=0;right=0;bottom=0;html=1;align=left;verticalAlign=top;fillColor=none;spacingLeft=34;spacingRight=4;whiteSpace=wrap;overflow=hidden;rotatable=0;points=[[0,0.5],[1,0.5]];portConstraint=eastwest;dropTarget=0;" vertex="1" parent="iBcIFzz1JDC8RSLhJRtD-30">
          <mxGeometry y="240" width="190" height="26" as="geometry" />
        </mxCell>
        <mxCell id="iBcIFzz1JDC8RSLhJRtD-46" value="" style="shape=partialRectangle;top=0;left=0;bottom=0;html=1;fillColor=none;align=left;verticalAlign=top;spacingLeft=4;spacingRight=4;whiteSpace=wrap;overflow=hidden;rotatable=0;points=[];portConstraint=eastwest;part=1;" vertex="1" connectable="0" parent="iBcIFzz1JDC8RSLhJRtD-45">
          <mxGeometry width="30" height="26" as="geometry" />
        </mxCell>
        <mxCell id="iBcIFzz1JDC8RSLhJRtD-47" value="varchar surface_width" style="shape=partialRectangle;top=0;left=0;right=0;bottom=0;html=1;align=left;verticalAlign=top;fillColor=none;spacingLeft=34;spacingRight=4;whiteSpace=wrap;overflow=hidden;rotatable=0;points=[[0,0.5],[1,0.5]];portConstraint=eastwest;dropTarget=0;" vertex="1" parent="iBcIFzz1JDC8RSLhJRtD-30">
          <mxGeometry y="266" width="190" height="26" as="geometry" />
        </mxCell>
        <mxCell id="iBcIFzz1JDC8RSLhJRtD-48" value="" style="shape=partialRectangle;top=0;left=0;bottom=0;html=1;fillColor=none;align=left;verticalAlign=top;spacingLeft=4;spacingRight=4;whiteSpace=wrap;overflow=hidden;rotatable=0;points=[];portConstraint=eastwest;part=1;" vertex="1" connectable="0" parent="iBcIFzz1JDC8RSLhJRtD-47">
          <mxGeometry width="30" height="26" as="geometry" />
        </mxCell>
        <mxCell id="iBcIFzz1JDC8RSLhJRtD-39" value="varchar surface_length" style="shape=partialRectangle;top=0;left=0;right=0;bottom=0;html=1;align=left;verticalAlign=top;fillColor=none;spacingLeft=34;spacingRight=4;whiteSpace=wrap;overflow=hidden;rotatable=0;points=[[0,0.5],[1,0.5]];portConstraint=eastwest;dropTarget=0;" vertex="1" parent="iBcIFzz1JDC8RSLhJRtD-30">
          <mxGeometry y="292" width="190" height="26" as="geometry" />
        </mxCell>
        <mxCell id="iBcIFzz1JDC8RSLhJRtD-40" value="" style="shape=partialRectangle;top=0;left=0;bottom=0;html=1;fillColor=none;align=left;verticalAlign=top;spacingLeft=4;spacingRight=4;whiteSpace=wrap;overflow=hidden;rotatable=0;points=[];portConstraint=eastwest;part=1;" vertex="1" connectable="0" parent="iBcIFzz1JDC8RSLhJRtD-39">
          <mxGeometry width="30" height="26" as="geometry" />
        </mxCell>
        <mxCell id="iBcIFzz1JDC8RSLhJRtD-51" value="double tile_offset" style="shape=partialRectangle;top=0;left=0;right=0;bottom=0;html=1;align=left;verticalAlign=top;fillColor=none;spacingLeft=34;spacingRight=4;whiteSpace=wrap;overflow=hidden;rotatable=0;points=[[0,0.5],[1,0.5]];portConstraint=eastwest;dropTarget=0;" vertex="1" parent="iBcIFzz1JDC8RSLhJRtD-30">
          <mxGeometry y="318" width="190" height="26" as="geometry" />
        </mxCell>
        <mxCell id="iBcIFzz1JDC8RSLhJRtD-52" value="" style="shape=partialRectangle;top=0;left=0;bottom=0;html=1;fillColor=none;align=left;verticalAlign=top;spacingLeft=4;spacingRight=4;whiteSpace=wrap;overflow=hidden;rotatable=0;points=[];portConstraint=eastwest;part=1;" vertex="1" connectable="0" parent="iBcIFzz1JDC8RSLhJRtD-51">
          <mxGeometry width="30" height="26" as="geometry" />
        </mxCell>
        <mxCell id="iBcIFzz1JDC8RSLhJRtD-49" value="double tile_gront" style="shape=partialRectangle;top=0;left=0;right=0;bottom=0;html=1;align=left;verticalAlign=top;fillColor=none;spacingLeft=34;spacingRight=4;whiteSpace=wrap;overflow=hidden;rotatable=0;points=[[0,0.5],[1,0.5]];portConstraint=eastwest;dropTarget=0;" vertex="1" parent="iBcIFzz1JDC8RSLhJRtD-30">
          <mxGeometry y="344" width="190" height="26" as="geometry" />
        </mxCell>
        <mxCell id="iBcIFzz1JDC8RSLhJRtD-50" value="" style="shape=partialRectangle;top=0;left=0;bottom=0;html=1;fillColor=none;align=left;verticalAlign=top;spacingLeft=4;spacingRight=4;whiteSpace=wrap;overflow=hidden;rotatable=0;points=[];portConstraint=eastwest;part=1;" vertex="1" connectable="0" parent="iBcIFzz1JDC8RSLhJRtD-49">
          <mxGeometry width="30" height="26" as="geometry" />
        </mxCell>
        <mxCell id="iBcIFzz1JDC8RSLhJRtD-59" value="varchar alignment" style="shape=partialRectangle;top=0;left=0;right=0;bottom=0;html=1;align=left;verticalAlign=top;fillColor=none;spacingLeft=34;spacingRight=4;whiteSpace=wrap;overflow=hidden;rotatable=0;points=[[0,0.5],[1,0.5]];portConstraint=eastwest;dropTarget=0;" vertex="1" parent="iBcIFzz1JDC8RSLhJRtD-30">
          <mxGeometry y="370" width="190" height="26" as="geometry" />
        </mxCell>
        <mxCell id="iBcIFzz1JDC8RSLhJRtD-60" value="" style="shape=partialRectangle;top=0;left=0;bottom=0;html=1;fillColor=none;align=left;verticalAlign=top;spacingLeft=4;spacingRight=4;whiteSpace=wrap;overflow=hidden;rotatable=0;points=[];portConstraint=eastwest;part=1;" vertex="1" connectable="0" parent="iBcIFzz1JDC8RSLhJRtD-59">
          <mxGeometry width="30" height="26" as="geometry" />
        </mxCell>
        <mxCell id="iBcIFzz1JDC8RSLhJRtD-105" value="double total_cost" style="shape=partialRectangle;top=0;left=0;right=0;bottom=0;html=1;align=left;verticalAlign=top;fillColor=none;spacingLeft=34;spacingRight=4;whiteSpace=wrap;overflow=hidden;rotatable=0;points=[[0,0.5],[1,0.5]];portConstraint=eastwest;dropTarget=0;" vertex="1" parent="iBcIFzz1JDC8RSLhJRtD-30">
          <mxGeometry y="396" width="190" height="26" as="geometry" />
        </mxCell>
        <mxCell id="iBcIFzz1JDC8RSLhJRtD-106" value="" style="shape=partialRectangle;top=0;left=0;bottom=0;html=1;fillColor=none;align=left;verticalAlign=top;spacingLeft=4;spacingRight=4;whiteSpace=wrap;overflow=hidden;rotatable=0;points=[];portConstraint=eastwest;part=1;" vertex="1" connectable="0" parent="iBcIFzz1JDC8RSLhJRtD-105">
          <mxGeometry width="30" height="26" as="geometry" />
        </mxCell>
        <mxCell id="iBcIFzz1JDC8RSLhJRtD-61" value="NonTilingAreaDetail" style="swimlane;html=1;fontStyle=0;childLayout=stackLayout;horizontal=1;startSize=26;fillColor=#e0e0e0;horizontalStack=0;resizeParent=1;resizeLast=0;collapsible=1;marginBottom=0;swimlaneFillColor=#ffffff;align=center;rounded=0;shadow=0;comic=0;labelBackgroundColor=none;strokeWidth=1;fontFamily=Verdana;fontSize=14" vertex="1" parent="1">
          <mxGeometry x="1007" y="444" width="170" height="196" as="geometry" />
        </mxCell>
        <mxCell id="iBcIFzz1JDC8RSLhJRtD-62" value="int id" style="shape=partialRectangle;top=0;left=0;right=0;bottom=1;html=1;align=left;verticalAlign=middle;fillColor=none;spacingLeft=34;spacingRight=4;whiteSpace=wrap;overflow=hidden;rotatable=0;points=[[0,0.5],[1,0.5]];portConstraint=eastwest;dropTarget=0;fontStyle=5;" vertex="1" parent="iBcIFzz1JDC8RSLhJRtD-61">
          <mxGeometry y="26" width="170" height="30" as="geometry" />
        </mxCell>
        <mxCell id="iBcIFzz1JDC8RSLhJRtD-63" value="PK" style="shape=partialRectangle;top=0;left=0;bottom=0;html=1;fillColor=none;align=left;verticalAlign=middle;spacingLeft=4;spacingRight=4;whiteSpace=wrap;overflow=hidden;rotatable=0;points=[];portConstraint=eastwest;part=1;" vertex="1" connectable="0" parent="iBcIFzz1JDC8RSLhJRtD-62">
          <mxGeometry width="30" height="30" as="geometry" />
        </mxCell>
        <mxCell id="iBcIFzz1JDC8RSLhJRtD-153" value="int area_scheme_id" style="shape=partialRectangle;top=0;left=0;right=0;bottom=0;html=1;align=left;verticalAlign=top;fillColor=none;spacingLeft=34;spacingRight=4;whiteSpace=wrap;overflow=hidden;rotatable=0;points=[[0,0.5],[1,0.5]];portConstraint=eastwest;dropTarget=0;" vertex="1" parent="iBcIFzz1JDC8RSLhJRtD-61">
          <mxGeometry y="56" width="170" height="28" as="geometry" />
        </mxCell>
        <mxCell id="iBcIFzz1JDC8RSLhJRtD-154" value="FK" style="shape=partialRectangle;top=0;left=0;bottom=0;html=1;fillColor=none;align=left;verticalAlign=top;spacingLeft=4;spacingRight=4;whiteSpace=wrap;overflow=hidden;rotatable=0;points=[];portConstraint=eastwest;part=1;" vertex="1" connectable="0" parent="iBcIFzz1JDC8RSLhJRtD-153">
          <mxGeometry width="30" height="28" as="geometry" />
        </mxCell>
        <mxCell id="iBcIFzz1JDC8RSLhJRtD-99" value="int X_dimension" style="shape=partialRectangle;top=0;left=0;right=0;bottom=0;html=1;align=left;verticalAlign=top;fillColor=none;spacingLeft=34;spacingRight=4;whiteSpace=wrap;overflow=hidden;rotatable=0;points=[[0,0.5],[1,0.5]];portConstraint=eastwest;dropTarget=0;" vertex="1" parent="iBcIFzz1JDC8RSLhJRtD-61">
          <mxGeometry y="84" width="170" height="28" as="geometry" />
        </mxCell>
        <mxCell id="iBcIFzz1JDC8RSLhJRtD-100" value="" style="shape=partialRectangle;top=0;left=0;bottom=0;html=1;fillColor=none;align=left;verticalAlign=top;spacingLeft=4;spacingRight=4;whiteSpace=wrap;overflow=hidden;rotatable=0;points=[];portConstraint=eastwest;part=1;" vertex="1" connectable="0" parent="iBcIFzz1JDC8RSLhJRtD-99">
          <mxGeometry width="30" height="28" as="geometry" />
        </mxCell>
        <mxCell id="iBcIFzz1JDC8RSLhJRtD-68" value="int Y_dimension" style="shape=partialRectangle;top=0;left=0;right=0;bottom=0;html=1;align=left;verticalAlign=top;fillColor=none;spacingLeft=34;spacingRight=4;whiteSpace=wrap;overflow=hidden;rotatable=0;points=[[0,0.5],[1,0.5]];portConstraint=eastwest;dropTarget=0;" vertex="1" parent="iBcIFzz1JDC8RSLhJRtD-61">
          <mxGeometry y="112" width="170" height="28" as="geometry" />
        </mxCell>
        <mxCell id="iBcIFzz1JDC8RSLhJRtD-69" value="" style="shape=partialRectangle;top=0;left=0;bottom=0;html=1;fillColor=none;align=left;verticalAlign=top;spacingLeft=4;spacingRight=4;whiteSpace=wrap;overflow=hidden;rotatable=0;points=[];portConstraint=eastwest;part=1;" vertex="1" connectable="0" parent="iBcIFzz1JDC8RSLhJRtD-68">
          <mxGeometry width="30" height="28" as="geometry" />
        </mxCell>
        <mxCell id="iBcIFzz1JDC8RSLhJRtD-103" value="int height" style="shape=partialRectangle;top=0;left=0;right=0;bottom=0;html=1;align=left;verticalAlign=top;fillColor=none;spacingLeft=34;spacingRight=4;whiteSpace=wrap;overflow=hidden;rotatable=0;points=[[0,0.5],[1,0.5]];portConstraint=eastwest;dropTarget=0;" vertex="1" parent="iBcIFzz1JDC8RSLhJRtD-61">
          <mxGeometry y="140" width="170" height="28" as="geometry" />
        </mxCell>
        <mxCell id="iBcIFzz1JDC8RSLhJRtD-104" value="" style="shape=partialRectangle;top=0;left=0;bottom=0;html=1;fillColor=none;align=left;verticalAlign=top;spacingLeft=4;spacingRight=4;whiteSpace=wrap;overflow=hidden;rotatable=0;points=[];portConstraint=eastwest;part=1;" vertex="1" connectable="0" parent="iBcIFzz1JDC8RSLhJRtD-103">
          <mxGeometry width="30" height="28" as="geometry" />
        </mxCell>
        <mxCell id="iBcIFzz1JDC8RSLhJRtD-101" value="int width" style="shape=partialRectangle;top=0;left=0;right=0;bottom=0;html=1;align=left;verticalAlign=top;fillColor=none;spacingLeft=34;spacingRight=4;whiteSpace=wrap;overflow=hidden;rotatable=0;points=[[0,0.5],[1,0.5]];portConstraint=eastwest;dropTarget=0;" vertex="1" parent="iBcIFzz1JDC8RSLhJRtD-61">
          <mxGeometry y="168" width="170" height="28" as="geometry" />
        </mxCell>
        <mxCell id="iBcIFzz1JDC8RSLhJRtD-102" value="" style="shape=partialRectangle;top=0;left=0;bottom=0;html=1;fillColor=none;align=left;verticalAlign=top;spacingLeft=4;spacingRight=4;whiteSpace=wrap;overflow=hidden;rotatable=0;points=[];portConstraint=eastwest;part=1;" vertex="1" connectable="0" parent="iBcIFzz1JDC8RSLhJRtD-101">
          <mxGeometry width="30" height="28" as="geometry" />
        </mxCell>
        <mxCell id="iBcIFzz1JDC8RSLhJRtD-107" value="User" style="swimlane;html=1;fontStyle=0;childLayout=stackLayout;horizontal=1;startSize=26;fillColor=#e0e0e0;horizontalStack=0;resizeParent=1;resizeLast=0;collapsible=1;marginBottom=0;swimlaneFillColor=#ffffff;align=center;rounded=0;shadow=0;comic=0;labelBackgroundColor=none;strokeWidth=1;fontFamily=Verdana;fontSize=14" vertex="1" parent="1">
          <mxGeometry x="263" y="376" width="190" height="56" as="geometry" />
        </mxCell>
        <mxCell id="iBcIFzz1JDC8RSLhJRtD-108" value="int id" style="shape=partialRectangle;top=0;left=0;right=0;bottom=1;html=1;align=left;verticalAlign=middle;fillColor=none;spacingLeft=34;spacingRight=4;whiteSpace=wrap;overflow=hidden;rotatable=0;points=[[0,0.5],[1,0.5]];portConstraint=eastwest;dropTarget=0;fontStyle=5;" vertex="1" parent="iBcIFzz1JDC8RSLhJRtD-107">
          <mxGeometry y="26" width="190" height="30" as="geometry" />
        </mxCell>
        <mxCell id="iBcIFzz1JDC8RSLhJRtD-109" value="PK" style="shape=partialRectangle;top=0;left=0;bottom=0;html=1;fillColor=none;align=left;verticalAlign=middle;spacingLeft=4;spacingRight=4;whiteSpace=wrap;overflow=hidden;rotatable=0;points=[];portConstraint=eastwest;part=1;" vertex="1" connectable="0" parent="iBcIFzz1JDC8RSLhJRtD-108">
          <mxGeometry width="30" height="30" as="geometry" />
        </mxCell>
        <mxCell id="iBcIFzz1JDC8RSLhJRtD-132" value="This table doesn&#39;t actually exist, it just stands in for the user data." style="shape=note;whiteSpace=wrap;html=1;backgroundOutline=1;darkOpacity=0.05;size=12;" vertex="1" parent="1">
          <mxGeometry x="255" y="290" width="200" height="50" as="geometry" />
        </mxCell>
        <mxCell id="iBcIFzz1JDC8RSLhJRtD-134" value="" style="endArrow=none;dashed=1;html=1;rounded=0;fontSize=12;startSize=8;endSize=8;curved=1;" edge="1" parent="1" source="iBcIFzz1JDC8RSLhJRtD-107" target="iBcIFzz1JDC8RSLhJRtD-132">
          <mxGeometry width="50" height="50" relative="1" as="geometry">
            <mxPoint x="120" y="470" as="sourcePoint" />
            <mxPoint x="170" y="420" as="targetPoint" />
          </mxGeometry>
        </mxCell>
        <mxCell id="iBcIFzz1JDC8RSLhJRtD-135" style="edgeStyle=none;curved=1;rounded=0;orthogonalLoop=1;jettySize=auto;html=1;fontSize=12;startSize=8;endSize=8;endArrow=ERzeroToMany;endFill=0;entryX=0;entryY=0.5;entryDx=0;entryDy=0;exitX=1;exitY=0.5;exitDx=0;exitDy=0;startArrow=ERone;startFill=0;" edge="1" parent="1" source="iBcIFzz1JDC8RSLhJRtD-108" target="iBcIFzz1JDC8RSLhJRtD-33">
          <mxGeometry relative="1" as="geometry" />
        </mxCell>
        <mxCell id="iBcIFzz1JDC8RSLhJRtD-139" style="edgeStyle=none;curved=1;rounded=0;orthogonalLoop=1;jettySize=auto;html=1;fontSize=12;startSize=8;endSize=8;endArrow=ERzeroToOne;endFill=0;startArrow=ERoneToMany;startFill=0;exitX=1;exitY=0.5;exitDx=0;exitDy=0;entryX=0;entryY=0.5;entryDx=0;entryDy=0;" edge="1" parent="1" source="iBcIFzz1JDC8RSLhJRtD-162" target="iBcIFzz1JDC8RSLhJRtD-142">
          <mxGeometry relative="1" as="geometry">
            <mxPoint x="800" y="700" as="sourcePoint" />
            <mxPoint x="790" y="390" as="targetPoint" />
          </mxGeometry>
        </mxCell>
        <mxCell id="iBcIFzz1JDC8RSLhJRtD-140" value="&lt;span style=&quot;font-family: Verdana; font-size: 14px; text-wrap-mode: nowrap;&quot;&gt;&lt;b&gt;说明&lt;/b&gt;&lt;/span&gt;&lt;div&gt;&lt;span style=&quot;font-family: Verdana; font-size: 14px; text-wrap-mode: nowrap;&quot;&gt;&lt;div style=&quot;text-align: left;&quot;&gt;&lt;div&gt;&lt;ul&gt;&lt;li&gt;&lt;span style=&quot;background-color: initial;&quot;&gt;&amp;nbsp;一个用户可能有多种或没有已经保存的方案（&lt;span style=&quot;text-align: center;&quot;&gt;UserTilingScheme&lt;/span&gt;）&lt;/span&gt;&lt;/li&gt;&lt;/ul&gt;&lt;ul&gt;&lt;li&gt;&lt;span style=&quot;background-color: initial;&quot;&gt;方案表中保存用户ID（具体怎么得来ID以后再说）用以识别用户&lt;/span&gt;&lt;/li&gt;&lt;/ul&gt;&lt;span style=&quot;background-color: initial;&quot;&gt;&lt;span style=&quot;white-space: pre;&quot;&gt;&#x9;&lt;/span&gt;对于不用铺砖的区域（门窗等）由于一个方案中可能需要保存多个不铺砖&lt;/span&gt;&lt;span style=&quot;background-color: initial;&quot;&gt;的区&lt;/span&gt;&lt;span style=&quot;background-color: initial;&quot;&gt;域因此新建两个&lt;/span&gt;&lt;/div&gt;&lt;div&gt;&lt;span style=&quot;background-color: initial;&quot;&gt;&lt;span style=&quot;white-space: pre;&quot;&gt;&#x9;&lt;/span&gt;表存储相关信息&lt;/span&gt;&lt;/div&gt;&lt;div&gt;&lt;ul&gt;&lt;li&gt;&lt;span style=&quot;background-color: initial;&quot;&gt;&lt;span style=&quot;text-align: center;&quot;&gt;假设所有&lt;/span&gt;&lt;/span&gt;&lt;span style=&quot;text-align: center;&quot;&gt;不铺砖区域都是长方形&lt;/span&gt;&lt;/li&gt;&lt;li&gt;&lt;span style=&quot;background-color: initial;&quot;&gt;&lt;span style=&quot;text-align: center;&quot;&gt;NonTilingAreaScheme将每个&lt;b&gt;不铺砖的设计&lt;/b&gt;作为一个整体方案保存&lt;/span&gt;&lt;/span&gt;&lt;/li&gt;&lt;li&gt;&lt;span style=&quot;background-color: initial;&quot;&gt;&lt;span style=&quot;text-align: center;&quot;&gt;NonTilingAreaDetail保存了每个不铺砖区域的位置（相对于左上角）和长宽&lt;/span&gt;&lt;/span&gt;&lt;/li&gt;&lt;li&gt;&lt;span style=&quot;background-color: initial;&quot;&gt;&lt;span style=&quot;text-align: center;&quot;&gt;一个&lt;/span&gt;&lt;/span&gt;&lt;span style=&quot;text-align: center;&quot;&gt;&lt;b style=&quot;text-align: left;&quot;&gt;&lt;span style=&quot;text-align: center;&quot;&gt;不铺砖&lt;/span&gt;&lt;span style=&quot;text-align: center;&quot;&gt;的&lt;/span&gt;&lt;/b&gt;&lt;b&gt;设计（&lt;/b&gt;NonTilingAreaScheme）中可能有多个&lt;/span&gt;&lt;span style=&quot;text-align: center;&quot;&gt;不铺砖区域（即NonTilingAreaDetail）&lt;/span&gt;&lt;/li&gt;&lt;li&gt;&lt;span style=&quot;text-align: center;&quot;&gt;每一个铺砖方案（UserTilingScheme）中可能存在一个或者不存在&lt;/span&gt;&lt;b&gt;&lt;span style=&quot;text-align: center;&quot;&gt;不铺砖&lt;/span&gt;&lt;span style=&quot;text-align: center;&quot;&gt;的&lt;/span&gt;&lt;/b&gt;&lt;b style=&quot;text-align: center;&quot;&gt;设计&lt;/b&gt;&lt;/li&gt;&lt;li&gt;&lt;span style=&quot;text-align: center;&quot;&gt;每个&lt;b&gt;不铺砖的&lt;/b&gt;&lt;/span&gt;&lt;span style=&quot;text-align: center;&quot;&gt;&lt;b&gt;设计&lt;/b&gt;（NonTilingAreaScheme）可能被多个铺砖方案（UserTilingScheme）复用&lt;/span&gt;&lt;/li&gt;&lt;/ul&gt;&lt;/div&gt;&lt;div&gt;&lt;br&gt;&lt;/div&gt;&lt;/div&gt;&lt;/span&gt;&lt;/div&gt;" style="shape=note;whiteSpace=wrap;html=1;backgroundOutline=1;darkOpacity=0.05;size=43;" vertex="1" parent="1">
          <mxGeometry x="-621" y="-62" width="670" height="280" as="geometry" />
        </mxCell>
        <mxCell id="iBcIFzz1JDC8RSLhJRtD-141" value="NonTilingAreaScheme" style="swimlane;html=1;fontStyle=0;childLayout=stackLayout;horizontal=1;startSize=26;fillColor=#e0e0e0;horizontalStack=0;resizeParent=1;resizeLast=0;collapsible=1;marginBottom=0;swimlaneFillColor=#ffffff;align=center;rounded=0;shadow=0;comic=0;labelBackgroundColor=none;strokeWidth=1;fontFamily=Verdana;fontSize=14" vertex="1" parent="1">
          <mxGeometry x="780" y="470" width="170" height="108" as="geometry" />
        </mxCell>
        <mxCell id="iBcIFzz1JDC8RSLhJRtD-142" value="int id" style="shape=partialRectangle;top=0;left=0;right=0;bottom=1;html=1;align=left;verticalAlign=middle;fillColor=none;spacingLeft=34;spacingRight=4;whiteSpace=wrap;overflow=hidden;rotatable=0;points=[[0,0.5],[1,0.5]];portConstraint=eastwest;dropTarget=0;fontStyle=5;" vertex="1" parent="iBcIFzz1JDC8RSLhJRtD-141">
          <mxGeometry y="26" width="170" height="30" as="geometry" />
        </mxCell>
        <mxCell id="iBcIFzz1JDC8RSLhJRtD-143" value="PK" style="shape=partialRectangle;top=0;left=0;bottom=0;html=1;fillColor=none;align=left;verticalAlign=middle;spacingLeft=4;spacingRight=4;whiteSpace=wrap;overflow=hidden;rotatable=0;points=[];portConstraint=eastwest;part=1;" vertex="1" connectable="0" parent="iBcIFzz1JDC8RSLhJRtD-142">
          <mxGeometry width="30" height="30" as="geometry" />
        </mxCell>
        <mxCell id="iBcIFzz1JDC8RSLhJRtD-160" value="varchar name" style="shape=partialRectangle;top=0;left=0;right=0;bottom=0;html=1;align=left;verticalAlign=top;fillColor=none;spacingLeft=34;spacingRight=4;whiteSpace=wrap;overflow=hidden;rotatable=0;points=[[0,0.5],[1,0.5]];portConstraint=eastwest;dropTarget=0;" vertex="1" parent="iBcIFzz1JDC8RSLhJRtD-141">
          <mxGeometry y="56" width="170" height="26" as="geometry" />
        </mxCell>
        <mxCell id="iBcIFzz1JDC8RSLhJRtD-161" value="" style="shape=partialRectangle;top=0;left=0;bottom=0;html=1;fillColor=none;align=left;verticalAlign=top;spacingLeft=4;spacingRight=4;whiteSpace=wrap;overflow=hidden;rotatable=0;points=[];portConstraint=eastwest;part=1;" vertex="1" connectable="0" parent="iBcIFzz1JDC8RSLhJRtD-160">
          <mxGeometry width="30" height="26" as="geometry" />
        </mxCell>
        <mxCell id="iBcIFzz1JDC8RSLhJRtD-157" value="varchar description" style="shape=partialRectangle;top=0;left=0;right=0;bottom=0;html=1;align=left;verticalAlign=top;fillColor=none;spacingLeft=34;spacingRight=4;whiteSpace=wrap;overflow=hidden;rotatable=0;points=[[0,0.5],[1,0.5]];portConstraint=eastwest;dropTarget=0;" vertex="1" parent="iBcIFzz1JDC8RSLhJRtD-141">
          <mxGeometry y="82" width="170" height="26" as="geometry" />
        </mxCell>
        <mxCell id="iBcIFzz1JDC8RSLhJRtD-158" value="" style="shape=partialRectangle;top=0;left=0;bottom=0;html=1;fillColor=none;align=left;verticalAlign=top;spacingLeft=4;spacingRight=4;whiteSpace=wrap;overflow=hidden;rotatable=0;points=[];portConstraint=eastwest;part=1;" vertex="1" connectable="0" parent="iBcIFzz1JDC8RSLhJRtD-157">
          <mxGeometry width="30" height="26" as="geometry" />
        </mxCell>
        <mxCell id="iBcIFzz1JDC8RSLhJRtD-152" style="edgeStyle=none;curved=1;rounded=0;orthogonalLoop=1;jettySize=auto;html=1;fontSize=12;startSize=8;endSize=8;endArrow=ERone;endFill=0;entryX=1;entryY=0.5;entryDx=0;entryDy=0;exitX=0;exitY=0.5;exitDx=0;exitDy=0;startArrow=ERoneToMany;startFill=0;" edge="1" parent="1" source="iBcIFzz1JDC8RSLhJRtD-153" target="iBcIFzz1JDC8RSLhJRtD-142">
          <mxGeometry relative="1" as="geometry">
            <mxPoint x="950" y="470" as="sourcePoint" />
            <mxPoint x="980" y="486" as="targetPoint" />
          </mxGeometry>
        </mxCell>
        <mxCell id="iBcIFzz1JDC8RSLhJRtD-164" value="&lt;font face=&quot;Verdana&quot;&gt;&lt;span style=&quot;font-size: 14px; text-wrap-mode: nowrap;&quot;&gt;&lt;b&gt;Explanation&lt;/b&gt;&lt;/span&gt;&lt;/font&gt;&lt;div&gt;&lt;div style=&quot;text-align: left;&quot;&gt;&lt;font face=&quot;Verdana&quot;&gt;&lt;span style=&quot;font-size: 14px; text-wrap-mode: nowrap;&quot;&gt;&lt;div style=&quot;&quot;&gt;&lt;ul&gt;&lt;li&gt;A user may have multiple or no saved schemes (UserTilingScheme).&amp;nbsp;&lt;/li&gt;&lt;li&gt;The scheme table stores the user ID (how to obtain the ID will be discussed later) to identify the user.&lt;/li&gt;&lt;/ul&gt;&lt;/div&gt;&lt;div style=&quot;&quot;&gt;&lt;span style=&quot;white-space: pre;&quot;&gt;&#x9;&lt;/span&gt;For areas that do not require tiling (such as doors and windows),&amp;nbsp;&lt;/div&gt;&lt;div style=&quot;&quot;&gt;&lt;span style=&quot;white-space: pre;&quot;&gt;&#x9;&lt;/span&gt;since a scheme may need to save multiple non-tiling areas, two new tables are created to store the relevant information.&lt;/div&gt;&lt;div style=&quot;&quot;&gt;&lt;ul&gt;&lt;li&gt;Assume all non-tiling areas are rectangular.&lt;/li&gt;&lt;li&gt;&lt;b&gt;NonTilingAreaScheme &lt;/b&gt;saves each non-tiling design as a whole scheme.&lt;/li&gt;&lt;li&gt;&lt;b&gt;NonTilingAreaDetail &lt;/b&gt;saves the position (relative to the top-left corner) and dimensions of each&lt;b&gt; non-tiling area (NonTilingAreaDetail)&lt;/b&gt;.&lt;/li&gt;&lt;li&gt;&lt;b&gt;A non-tiling design (NonTilingAreaScheme)&lt;/b&gt; may contain multiple &lt;b&gt;non-tiling areas (NonTilingAreaDetail)&lt;/b&gt;.&lt;/li&gt;&lt;li&gt;Each &lt;b&gt;tiling scheme (UserTilingScheme) &lt;/b&gt;may have one or no non-tiling designs&lt;/li&gt;&lt;li&gt;Each &lt;b&gt;non-tiling design (NonTilingAreaScheme) &lt;/b&gt;may be reused by multiple &lt;b&gt;tiling schemes (UserTilingScheme)&lt;/b&gt;.&lt;/li&gt;&lt;/ul&gt;&lt;/div&gt;&lt;/span&gt;&lt;/font&gt;&lt;/div&gt;&lt;div&gt;&lt;span style=&quot;font-family: Verdana; font-size: 14px; text-wrap-mode: nowrap;&quot;&gt;&lt;div style=&quot;text-align: left;&quot;&gt;&lt;div&gt;&lt;br&gt;&lt;/div&gt;&lt;/div&gt;&lt;/span&gt;&lt;/div&gt;&lt;/div&gt;" style="shape=note;whiteSpace=wrap;html=1;backgroundOutline=1;darkOpacity=0.05;size=43;" vertex="1" parent="1">
          <mxGeometry x="268" y="-62" width="1050" height="280" as="geometry" />
        </mxCell>
      </root>
    </mxGraphModel>
  </diagram>
  <diagram id="glK_XU0F7oXy8yqM5GwG" name="第 2 页">
    <mxGraphModel grid="1" page="1" gridSize="10" guides="1" tooltips="1" connect="1" arrows="1" fold="1" pageScale="1" pageWidth="827" pageHeight="1169" math="0" shadow="0">
      <root>
        <mxCell id="0" />
        <mxCell id="1" parent="0" />
        <mxCell id="l7ajoWXJGJrli_pLDiKM-1" value="Cost" style="swimlane;html=1;fontStyle=0;childLayout=stackLayout;horizontal=1;startSize=26;fillColor=#e0e0e0;horizontalStack=0;resizeParent=1;resizeLast=0;collapsible=1;marginBottom=0;swimlaneFillColor=#ffffff;align=center;rounded=0;shadow=0;comic=0;labelBackgroundColor=none;strokeWidth=1;fontFamily=Verdana;fontSize=14" vertex="1" parent="1">
          <mxGeometry x="255" y="500" width="190" height="160" as="geometry" />
        </mxCell>
        <mxCell id="l7ajoWXJGJrli_pLDiKM-2" value="int tile_id" style="shape=partialRectangle;top=0;left=0;right=0;bottom=1;html=1;align=left;verticalAlign=middle;fillColor=none;spacingLeft=34;spacingRight=4;whiteSpace=wrap;overflow=hidden;rotatable=0;points=[[0,0.5],[1,0.5]];portConstraint=eastwest;dropTarget=0;fontStyle=5;" vertex="1" parent="l7ajoWXJGJrli_pLDiKM-1">
          <mxGeometry y="26" width="190" height="30" as="geometry" />
        </mxCell>
        <mxCell id="l7ajoWXJGJrli_pLDiKM-3" value="PK" style="shape=partialRectangle;top=0;left=0;bottom=0;html=1;fillColor=none;align=left;verticalAlign=middle;spacingLeft=4;spacingRight=4;whiteSpace=wrap;overflow=hidden;rotatable=0;points=[];portConstraint=eastwest;part=1;" connectable="0" vertex="1" parent="l7ajoWXJGJrli_pLDiKM-2">
          <mxGeometry width="30" height="30" as="geometry" />
        </mxCell>
        <mxCell id="l7ajoWXJGJrli_pLDiKM-4" value="double tile_cost" style="shape=partialRectangle;top=0;left=0;right=0;bottom=0;html=1;align=left;verticalAlign=top;fillColor=none;spacingLeft=34;spacingRight=4;whiteSpace=wrap;overflow=hidden;rotatable=0;points=[[0,0.5],[1,0.5]];portConstraint=eastwest;dropTarget=0;" vertex="1" parent="l7ajoWXJGJrli_pLDiKM-1">
          <mxGeometry y="56" width="190" height="26" as="geometry" />
        </mxCell>
        <mxCell id="l7ajoWXJGJrli_pLDiKM-5" value="" style="shape=partialRectangle;top=0;left=0;bottom=0;html=1;fillColor=none;align=left;verticalAlign=top;spacingLeft=4;spacingRight=4;whiteSpace=wrap;overflow=hidden;rotatable=0;points=[];portConstraint=eastwest;part=1;" connectable="0" vertex="1" parent="l7ajoWXJGJrli_pLDiKM-4">
          <mxGeometry width="30" height="26" as="geometry" />
        </mxCell>
        <mxCell id="l7ajoWXJGJrli_pLDiKM-6" value="double&amp;nbsp;tiling_lay_gront_cost" style="shape=partialRectangle;top=0;left=0;right=0;bottom=0;html=1;align=left;verticalAlign=top;fillColor=none;spacingLeft=34;spacingRight=4;whiteSpace=wrap;overflow=hidden;rotatable=0;points=[[0,0.5],[1,0.5]];portConstraint=eastwest;dropTarget=0;" vertex="1" parent="l7ajoWXJGJrli_pLDiKM-1">
          <mxGeometry y="82" width="190" height="26" as="geometry" />
        </mxCell>
        <mxCell id="l7ajoWXJGJrli_pLDiKM-7" value="" style="shape=partialRectangle;top=0;left=0;bottom=0;html=1;fillColor=none;align=left;verticalAlign=top;spacingLeft=4;spacingRight=4;whiteSpace=wrap;overflow=hidden;rotatable=0;points=[];portConstraint=eastwest;part=1;" connectable="0" vertex="1" parent="l7ajoWXJGJrli_pLDiKM-6">
          <mxGeometry width="30" height="26" as="geometry" />
        </mxCell>
        <mxCell id="l7ajoWXJGJrli_pLDiKM-8" value="double&amp;nbsp;gront_cost" style="shape=partialRectangle;top=0;left=0;right=0;bottom=0;html=1;align=left;verticalAlign=top;fillColor=none;spacingLeft=34;spacingRight=4;whiteSpace=wrap;overflow=hidden;rotatable=0;points=[[0,0.5],[1,0.5]];portConstraint=eastwest;dropTarget=0;" vertex="1" parent="l7ajoWXJGJrli_pLDiKM-1">
          <mxGeometry y="108" width="190" height="26" as="geometry" />
        </mxCell>
        <mxCell id="l7ajoWXJGJrli_pLDiKM-9" value="" style="shape=partialRectangle;top=0;left=0;bottom=0;html=1;fillColor=none;align=left;verticalAlign=top;spacingLeft=4;spacingRight=4;whiteSpace=wrap;overflow=hidden;rotatable=0;points=[];portConstraint=eastwest;part=1;" connectable="0" vertex="1" parent="l7ajoWXJGJrli_pLDiKM-8">
          <mxGeometry width="30" height="26" as="geometry" />
        </mxCell>
        <mxCell id="l7ajoWXJGJrli_pLDiKM-10" value="double&amp;nbsp;adhesive_cost" style="shape=partialRectangle;top=0;left=0;right=0;bottom=0;html=1;align=left;verticalAlign=top;fillColor=none;spacingLeft=34;spacingRight=4;whiteSpace=wrap;overflow=hidden;rotatable=0;points=[[0,0.5],[1,0.5]];portConstraint=eastwest;dropTarget=0;" vertex="1" parent="l7ajoWXJGJrli_pLDiKM-1">
          <mxGeometry y="134" width="190" height="26" as="geometry" />
        </mxCell>
        <mxCell id="l7ajoWXJGJrli_pLDiKM-11" value="" style="shape=partialRectangle;top=0;left=0;bottom=0;html=1;fillColor=none;align=left;verticalAlign=top;spacingLeft=4;spacingRight=4;whiteSpace=wrap;overflow=hidden;rotatable=0;points=[];portConstraint=eastwest;part=1;" connectable="0" vertex="1" parent="l7ajoWXJGJrli_pLDiKM-10">
          <mxGeometry width="30" height="26" as="geometry" />
        </mxCell>
        <mxCell id="l7ajoWXJGJrli_pLDiKM-12" value="" style="shape=partialRectangle;top=0;left=0;right=0;bottom=0;html=1;align=left;verticalAlign=top;fillColor=none;spacingLeft=34;spacingRight=4;whiteSpace=wrap;overflow=hidden;rotatable=0;points=[[0,0.5],[1,0.5]];portConstraint=eastwest;dropTarget=0;" vertex="1" parent="l7ajoWXJGJrli_pLDiKM-1">
          <mxGeometry y="160" width="190" as="geometry" />
        </mxCell>
        <mxCell id="l7ajoWXJGJrli_pLDiKM-13" value="" style="shape=partialRectangle;top=0;left=0;bottom=0;html=1;fillColor=none;align=left;verticalAlign=top;spacingLeft=4;spacingRight=4;whiteSpace=wrap;overflow=hidden;rotatable=0;points=[];portConstraint=eastwest;part=1;" connectable="0" vertex="1" parent="l7ajoWXJGJrli_pLDiKM-12">
          <mxGeometry width="30" as="geometry" />
        </mxCell>
        <mxCell id="l7ajoWXJGJrli_pLDiKM-14" value="&amp;nbsp;UserTilingScheme" style="swimlane;html=1;fontStyle=0;childLayout=stackLayout;horizontal=1;startSize=26;fillColor=#e0e0e0;horizontalStack=0;resizeParent=1;resizeLast=0;collapsible=1;marginBottom=0;swimlaneFillColor=#ffffff;align=center;rounded=0;shadow=0;comic=0;labelBackgroundColor=none;strokeWidth=1;fontFamily=Verdana;fontSize=14;swimlaneLine=1;" vertex="1" parent="1">
          <mxGeometry x="510" y="360" width="190" height="422" as="geometry">
            <mxRectangle x="510" y="360" width="170" height="30" as="alternateBounds" />
          </mxGeometry>
        </mxCell>
        <mxCell id="l7ajoWXJGJrli_pLDiKM-15" value="int id" style="shape=partialRectangle;top=0;left=0;right=0;bottom=1;html=1;align=left;verticalAlign=middle;fillColor=none;spacingLeft=34;spacingRight=4;whiteSpace=wrap;overflow=hidden;rotatable=0;points=[[0,0.5],[1,0.5]];portConstraint=eastwest;dropTarget=0;fontStyle=5;" vertex="1" parent="l7ajoWXJGJrli_pLDiKM-14">
          <mxGeometry y="26" width="190" height="30" as="geometry" />
        </mxCell>
        <mxCell id="l7ajoWXJGJrli_pLDiKM-16" value="PK" style="shape=partialRectangle;top=0;left=0;bottom=0;html=1;fillColor=none;align=left;verticalAlign=middle;spacingLeft=4;spacingRight=4;whiteSpace=wrap;overflow=hidden;rotatable=0;points=[];portConstraint=eastwest;part=1;" connectable="0" vertex="1" parent="l7ajoWXJGJrli_pLDiKM-15">
          <mxGeometry width="30" height="30" as="geometry" />
        </mxCell>
        <mxCell id="l7ajoWXJGJrli_pLDiKM-17" value="int user_id" style="shape=partialRectangle;top=0;left=0;right=0;bottom=0;html=1;align=left;verticalAlign=top;fillColor=none;spacingLeft=34;spacingRight=4;whiteSpace=wrap;overflow=hidden;rotatable=0;points=[[0,0.5],[1,0.5]];portConstraint=eastwest;dropTarget=0;" vertex="1" parent="l7ajoWXJGJrli_pLDiKM-14">
          <mxGeometry y="56" width="190" height="26" as="geometry" />
        </mxCell>
        <mxCell id="l7ajoWXJGJrli_pLDiKM-18" value="FK" style="shape=partialRectangle;top=0;left=0;bottom=0;html=1;fillColor=none;align=left;verticalAlign=top;spacingLeft=4;spacingRight=4;whiteSpace=wrap;overflow=hidden;rotatable=0;points=[];portConstraint=eastwest;part=1;" connectable="0" vertex="1" parent="l7ajoWXJGJrli_pLDiKM-17">
          <mxGeometry width="30" height="26" as="geometry" />
        </mxCell>
        <mxCell id="l7ajoWXJGJrli_pLDiKM-19" value="varchar name" style="shape=partialRectangle;top=0;left=0;right=0;bottom=0;html=1;align=left;verticalAlign=top;fillColor=none;spacingLeft=34;spacingRight=4;whiteSpace=wrap;overflow=hidden;rotatable=0;points=[[0,0.5],[1,0.5]];portConstraint=eastwest;dropTarget=0;" vertex="1" parent="l7ajoWXJGJrli_pLDiKM-14">
          <mxGeometry y="82" width="190" height="26" as="geometry" />
        </mxCell>
        <mxCell id="l7ajoWXJGJrli_pLDiKM-20" value="" style="shape=partialRectangle;top=0;left=0;bottom=0;html=1;fillColor=none;align=left;verticalAlign=top;spacingLeft=4;spacingRight=4;whiteSpace=wrap;overflow=hidden;rotatable=0;points=[];portConstraint=eastwest;part=1;" connectable="0" vertex="1" parent="l7ajoWXJGJrli_pLDiKM-19">
          <mxGeometry width="30" height="26" as="geometry" />
        </mxCell>
        <mxCell id="l7ajoWXJGJrli_pLDiKM-21" value="varchar description" style="shape=partialRectangle;top=0;left=0;right=0;bottom=0;html=1;align=left;verticalAlign=top;fillColor=none;spacingLeft=34;spacingRight=4;whiteSpace=wrap;overflow=hidden;rotatable=0;points=[[0,0.5],[1,0.5]];portConstraint=eastwest;dropTarget=0;" vertex="1" parent="l7ajoWXJGJrli_pLDiKM-14">
          <mxGeometry y="108" width="190" height="26" as="geometry" />
        </mxCell>
        <mxCell id="l7ajoWXJGJrli_pLDiKM-22" value="" style="shape=partialRectangle;top=0;left=0;bottom=0;html=1;fillColor=none;align=left;verticalAlign=top;spacingLeft=4;spacingRight=4;whiteSpace=wrap;overflow=hidden;rotatable=0;points=[];portConstraint=eastwest;part=1;" connectable="0" vertex="1" parent="l7ajoWXJGJrli_pLDiKM-21">
          <mxGeometry width="30" height="26" as="geometry" />
        </mxCell>
        <mxCell id="l7ajoWXJGJrli_pLDiKM-23" value="int area_scheme_id" style="shape=partialRectangle;top=0;left=0;right=0;bottom=0;html=1;align=left;verticalAlign=top;fillColor=none;spacingLeft=34;spacingRight=4;whiteSpace=wrap;overflow=hidden;rotatable=0;points=[[0,0.5],[1,0.5]];portConstraint=eastwest;dropTarget=0;" vertex="1" parent="l7ajoWXJGJrli_pLDiKM-14">
          <mxGeometry y="134" width="190" height="28" as="geometry" />
        </mxCell>
        <mxCell id="l7ajoWXJGJrli_pLDiKM-24" value="FK" style="shape=partialRectangle;top=0;left=0;bottom=0;html=1;fillColor=none;align=left;verticalAlign=top;spacingLeft=4;spacingRight=4;whiteSpace=wrap;overflow=hidden;rotatable=0;points=[];portConstraint=eastwest;part=1;" connectable="0" vertex="1" parent="l7ajoWXJGJrli_pLDiKM-23">
          <mxGeometry width="30" height="28" as="geometry" />
        </mxCell>
        <mxCell id="l7ajoWXJGJrli_pLDiKM-25" value="varchar tile_class" style="shape=partialRectangle;top=0;left=0;right=0;bottom=0;html=1;align=left;verticalAlign=top;fillColor=none;spacingLeft=34;spacingRight=4;whiteSpace=wrap;overflow=hidden;rotatable=0;points=[[0,0.5],[1,0.5]];portConstraint=eastwest;dropTarget=0;" vertex="1" parent="l7ajoWXJGJrli_pLDiKM-14">
          <mxGeometry y="162" width="190" height="26" as="geometry" />
        </mxCell>
        <mxCell id="l7ajoWXJGJrli_pLDiKM-26" value="" style="shape=partialRectangle;top=0;left=0;bottom=0;html=1;fillColor=none;align=left;verticalAlign=top;spacingLeft=4;spacingRight=4;whiteSpace=wrap;overflow=hidden;rotatable=0;points=[];portConstraint=eastwest;part=1;" connectable="0" vertex="1" parent="l7ajoWXJGJrli_pLDiKM-25">
          <mxGeometry width="30" height="26" as="geometry" />
        </mxCell>
        <mxCell id="l7ajoWXJGJrli_pLDiKM-27" value="varchar tile_family" style="shape=partialRectangle;top=0;left=0;right=0;bottom=0;html=1;align=left;verticalAlign=top;fillColor=none;spacingLeft=34;spacingRight=4;whiteSpace=wrap;overflow=hidden;rotatable=0;points=[[0,0.5],[1,0.5]];portConstraint=eastwest;dropTarget=0;" vertex="1" parent="l7ajoWXJGJrli_pLDiKM-14">
          <mxGeometry y="188" width="190" height="26" as="geometry" />
        </mxCell>
        <mxCell id="l7ajoWXJGJrli_pLDiKM-28" value="" style="shape=partialRectangle;top=0;left=0;bottom=0;html=1;fillColor=none;align=left;verticalAlign=top;spacingLeft=4;spacingRight=4;whiteSpace=wrap;overflow=hidden;rotatable=0;points=[];portConstraint=eastwest;part=1;" connectable="0" vertex="1" parent="l7ajoWXJGJrli_pLDiKM-27">
          <mxGeometry width="30" height="26" as="geometry" />
        </mxCell>
        <mxCell id="l7ajoWXJGJrli_pLDiKM-29" value="varchar tile_pattern" style="shape=partialRectangle;top=0;left=0;right=0;bottom=0;html=1;align=left;verticalAlign=top;fillColor=none;spacingLeft=34;spacingRight=4;whiteSpace=wrap;overflow=hidden;rotatable=0;points=[[0,0.5],[1,0.5]];portConstraint=eastwest;dropTarget=0;" vertex="1" parent="l7ajoWXJGJrli_pLDiKM-14">
          <mxGeometry y="214" width="190" height="26" as="geometry" />
        </mxCell>
        <mxCell id="l7ajoWXJGJrli_pLDiKM-30" value="" style="shape=partialRectangle;top=0;left=0;bottom=0;html=1;fillColor=none;align=left;verticalAlign=top;spacingLeft=4;spacingRight=4;whiteSpace=wrap;overflow=hidden;rotatable=0;points=[];portConstraint=eastwest;part=1;" connectable="0" vertex="1" parent="l7ajoWXJGJrli_pLDiKM-29">
          <mxGeometry width="30" height="26" as="geometry" />
        </mxCell>
        <mxCell id="l7ajoWXJGJrli_pLDiKM-31" value="varchar tile_size" style="shape=partialRectangle;top=0;left=0;right=0;bottom=0;html=1;align=left;verticalAlign=top;fillColor=none;spacingLeft=34;spacingRight=4;whiteSpace=wrap;overflow=hidden;rotatable=0;points=[[0,0.5],[1,0.5]];portConstraint=eastwest;dropTarget=0;" vertex="1" parent="l7ajoWXJGJrli_pLDiKM-14">
          <mxGeometry y="240" width="190" height="26" as="geometry" />
        </mxCell>
        <mxCell id="l7ajoWXJGJrli_pLDiKM-32" value="" style="shape=partialRectangle;top=0;left=0;bottom=0;html=1;fillColor=none;align=left;verticalAlign=top;spacingLeft=4;spacingRight=4;whiteSpace=wrap;overflow=hidden;rotatable=0;points=[];portConstraint=eastwest;part=1;" connectable="0" vertex="1" parent="l7ajoWXJGJrli_pLDiKM-31">
          <mxGeometry width="30" height="26" as="geometry" />
        </mxCell>
        <mxCell id="l7ajoWXJGJrli_pLDiKM-33" value="varchar surface_width" style="shape=partialRectangle;top=0;left=0;right=0;bottom=0;html=1;align=left;verticalAlign=top;fillColor=none;spacingLeft=34;spacingRight=4;whiteSpace=wrap;overflow=hidden;rotatable=0;points=[[0,0.5],[1,0.5]];portConstraint=eastwest;dropTarget=0;" vertex="1" parent="l7ajoWXJGJrli_pLDiKM-14">
          <mxGeometry y="266" width="190" height="26" as="geometry" />
        </mxCell>
        <mxCell id="l7ajoWXJGJrli_pLDiKM-34" value="" style="shape=partialRectangle;top=0;left=0;bottom=0;html=1;fillColor=none;align=left;verticalAlign=top;spacingLeft=4;spacingRight=4;whiteSpace=wrap;overflow=hidden;rotatable=0;points=[];portConstraint=eastwest;part=1;" connectable="0" vertex="1" parent="l7ajoWXJGJrli_pLDiKM-33">
          <mxGeometry width="30" height="26" as="geometry" />
        </mxCell>
        <mxCell id="l7ajoWXJGJrli_pLDiKM-35" value="varchar surface_length" style="shape=partialRectangle;top=0;left=0;right=0;bottom=0;html=1;align=left;verticalAlign=top;fillColor=none;spacingLeft=34;spacingRight=4;whiteSpace=wrap;overflow=hidden;rotatable=0;points=[[0,0.5],[1,0.5]];portConstraint=eastwest;dropTarget=0;" vertex="1" parent="l7ajoWXJGJrli_pLDiKM-14">
          <mxGeometry y="292" width="190" height="26" as="geometry" />
        </mxCell>
        <mxCell id="l7ajoWXJGJrli_pLDiKM-36" value="" style="shape=partialRectangle;top=0;left=0;bottom=0;html=1;fillColor=none;align=left;verticalAlign=top;spacingLeft=4;spacingRight=4;whiteSpace=wrap;overflow=hidden;rotatable=0;points=[];portConstraint=eastwest;part=1;" connectable="0" vertex="1" parent="l7ajoWXJGJrli_pLDiKM-35">
          <mxGeometry width="30" height="26" as="geometry" />
        </mxCell>
        <mxCell id="l7ajoWXJGJrli_pLDiKM-37" value="double tile_offset" style="shape=partialRectangle;top=0;left=0;right=0;bottom=0;html=1;align=left;verticalAlign=top;fillColor=none;spacingLeft=34;spacingRight=4;whiteSpace=wrap;overflow=hidden;rotatable=0;points=[[0,0.5],[1,0.5]];portConstraint=eastwest;dropTarget=0;" vertex="1" parent="l7ajoWXJGJrli_pLDiKM-14">
          <mxGeometry y="318" width="190" height="26" as="geometry" />
        </mxCell>
        <mxCell id="l7ajoWXJGJrli_pLDiKM-38" value="" style="shape=partialRectangle;top=0;left=0;bottom=0;html=1;fillColor=none;align=left;verticalAlign=top;spacingLeft=4;spacingRight=4;whiteSpace=wrap;overflow=hidden;rotatable=0;points=[];portConstraint=eastwest;part=1;" connectable="0" vertex="1" parent="l7ajoWXJGJrli_pLDiKM-37">
          <mxGeometry width="30" height="26" as="geometry" />
        </mxCell>
        <mxCell id="l7ajoWXJGJrli_pLDiKM-39" value="double tile_gront" style="shape=partialRectangle;top=0;left=0;right=0;bottom=0;html=1;align=left;verticalAlign=top;fillColor=none;spacingLeft=34;spacingRight=4;whiteSpace=wrap;overflow=hidden;rotatable=0;points=[[0,0.5],[1,0.5]];portConstraint=eastwest;dropTarget=0;" vertex="1" parent="l7ajoWXJGJrli_pLDiKM-14">
          <mxGeometry y="344" width="190" height="26" as="geometry" />
        </mxCell>
        <mxCell id="l7ajoWXJGJrli_pLDiKM-40" value="" style="shape=partialRectangle;top=0;left=0;bottom=0;html=1;fillColor=none;align=left;verticalAlign=top;spacingLeft=4;spacingRight=4;whiteSpace=wrap;overflow=hidden;rotatable=0;points=[];portConstraint=eastwest;part=1;" connectable="0" vertex="1" parent="l7ajoWXJGJrli_pLDiKM-39">
          <mxGeometry width="30" height="26" as="geometry" />
        </mxCell>
        <mxCell id="l7ajoWXJGJrli_pLDiKM-41" value="varchar alignment" style="shape=partialRectangle;top=0;left=0;right=0;bottom=0;html=1;align=left;verticalAlign=top;fillColor=none;spacingLeft=34;spacingRight=4;whiteSpace=wrap;overflow=hidden;rotatable=0;points=[[0,0.5],[1,0.5]];portConstraint=eastwest;dropTarget=0;" vertex="1" parent="l7ajoWXJGJrli_pLDiKM-14">
          <mxGeometry y="370" width="190" height="26" as="geometry" />
        </mxCell>
        <mxCell id="l7ajoWXJGJrli_pLDiKM-42" value="" style="shape=partialRectangle;top=0;left=0;bottom=0;html=1;fillColor=none;align=left;verticalAlign=top;spacingLeft=4;spacingRight=4;whiteSpace=wrap;overflow=hidden;rotatable=0;points=[];portConstraint=eastwest;part=1;" connectable="0" vertex="1" parent="l7ajoWXJGJrli_pLDiKM-41">
          <mxGeometry width="30" height="26" as="geometry" />
        </mxCell>
        <mxCell id="l7ajoWXJGJrli_pLDiKM-43" value="double total_cost" style="shape=partialRectangle;top=0;left=0;right=0;bottom=0;html=1;align=left;verticalAlign=top;fillColor=none;spacingLeft=34;spacingRight=4;whiteSpace=wrap;overflow=hidden;rotatable=0;points=[[0,0.5],[1,0.5]];portConstraint=eastwest;dropTarget=0;" vertex="1" parent="l7ajoWXJGJrli_pLDiKM-14">
          <mxGeometry y="396" width="190" height="26" as="geometry" />
        </mxCell>
        <mxCell id="l7ajoWXJGJrli_pLDiKM-44" value="" style="shape=partialRectangle;top=0;left=0;bottom=0;html=1;fillColor=none;align=left;verticalAlign=top;spacingLeft=4;spacingRight=4;whiteSpace=wrap;overflow=hidden;rotatable=0;points=[];portConstraint=eastwest;part=1;" connectable="0" vertex="1" parent="l7ajoWXJGJrli_pLDiKM-43">
          <mxGeometry width="30" height="26" as="geometry" />
        </mxCell>
        <mxCell id="l7ajoWXJGJrli_pLDiKM-45" value="NonTilingAreaDetail" style="swimlane;html=1;fontStyle=0;childLayout=stackLayout;horizontal=1;startSize=26;fillColor=#e0e0e0;horizontalStack=0;resizeParent=1;resizeLast=0;collapsible=1;marginBottom=0;swimlaneFillColor=#ffffff;align=center;rounded=0;shadow=0;comic=0;labelBackgroundColor=none;strokeWidth=1;fontFamily=Verdana;fontSize=14" vertex="1" parent="1">
          <mxGeometry x="1000" y="440" width="170" height="196" as="geometry" />
        </mxCell>
        <mxCell id="l7ajoWXJGJrli_pLDiKM-46" value="int id" style="shape=partialRectangle;top=0;left=0;right=0;bottom=1;html=1;align=left;verticalAlign=middle;fillColor=none;spacingLeft=34;spacingRight=4;whiteSpace=wrap;overflow=hidden;rotatable=0;points=[[0,0.5],[1,0.5]];portConstraint=eastwest;dropTarget=0;fontStyle=5;" vertex="1" parent="l7ajoWXJGJrli_pLDiKM-45">
          <mxGeometry y="26" width="170" height="30" as="geometry" />
        </mxCell>
        <mxCell id="l7ajoWXJGJrli_pLDiKM-47" value="PK" style="shape=partialRectangle;top=0;left=0;bottom=0;html=1;fillColor=none;align=left;verticalAlign=middle;spacingLeft=4;spacingRight=4;whiteSpace=wrap;overflow=hidden;rotatable=0;points=[];portConstraint=eastwest;part=1;" connectable="0" vertex="1" parent="l7ajoWXJGJrli_pLDiKM-46">
          <mxGeometry width="30" height="30" as="geometry" />
        </mxCell>
        <mxCell id="l7ajoWXJGJrli_pLDiKM-48" value="int area_scheme_id" style="shape=partialRectangle;top=0;left=0;right=0;bottom=0;html=1;align=left;verticalAlign=top;fillColor=none;spacingLeft=34;spacingRight=4;whiteSpace=wrap;overflow=hidden;rotatable=0;points=[[0,0.5],[1,0.5]];portConstraint=eastwest;dropTarget=0;" vertex="1" parent="l7ajoWXJGJrli_pLDiKM-45">
          <mxGeometry y="56" width="170" height="28" as="geometry" />
        </mxCell>
        <mxCell id="l7ajoWXJGJrli_pLDiKM-49" value="FK" style="shape=partialRectangle;top=0;left=0;bottom=0;html=1;fillColor=none;align=left;verticalAlign=top;spacingLeft=4;spacingRight=4;whiteSpace=wrap;overflow=hidden;rotatable=0;points=[];portConstraint=eastwest;part=1;" connectable="0" vertex="1" parent="l7ajoWXJGJrli_pLDiKM-48">
          <mxGeometry width="30" height="28" as="geometry" />
        </mxCell>
        <mxCell id="l7ajoWXJGJrli_pLDiKM-50" value="int X_dimension" style="shape=partialRectangle;top=0;left=0;right=0;bottom=0;html=1;align=left;verticalAlign=top;fillColor=none;spacingLeft=34;spacingRight=4;whiteSpace=wrap;overflow=hidden;rotatable=0;points=[[0,0.5],[1,0.5]];portConstraint=eastwest;dropTarget=0;" vertex="1" parent="l7ajoWXJGJrli_pLDiKM-45">
          <mxGeometry y="84" width="170" height="28" as="geometry" />
        </mxCell>
        <mxCell id="l7ajoWXJGJrli_pLDiKM-51" value="" style="shape=partialRectangle;top=0;left=0;bottom=0;html=1;fillColor=none;align=left;verticalAlign=top;spacingLeft=4;spacingRight=4;whiteSpace=wrap;overflow=hidden;rotatable=0;points=[];portConstraint=eastwest;part=1;" connectable="0" vertex="1" parent="l7ajoWXJGJrli_pLDiKM-50">
          <mxGeometry width="30" height="28" as="geometry" />
        </mxCell>
        <mxCell id="l7ajoWXJGJrli_pLDiKM-52" value="int Y_dimension" style="shape=partialRectangle;top=0;left=0;right=0;bottom=0;html=1;align=left;verticalAlign=top;fillColor=none;spacingLeft=34;spacingRight=4;whiteSpace=wrap;overflow=hidden;rotatable=0;points=[[0,0.5],[1,0.5]];portConstraint=eastwest;dropTarget=0;" vertex="1" parent="l7ajoWXJGJrli_pLDiKM-45">
          <mxGeometry y="112" width="170" height="28" as="geometry" />
        </mxCell>
        <mxCell id="l7ajoWXJGJrli_pLDiKM-53" value="" style="shape=partialRectangle;top=0;left=0;bottom=0;html=1;fillColor=none;align=left;verticalAlign=top;spacingLeft=4;spacingRight=4;whiteSpace=wrap;overflow=hidden;rotatable=0;points=[];portConstraint=eastwest;part=1;" connectable="0" vertex="1" parent="l7ajoWXJGJrli_pLDiKM-52">
          <mxGeometry width="30" height="28" as="geometry" />
        </mxCell>
        <mxCell id="l7ajoWXJGJrli_pLDiKM-54" value="int height" style="shape=partialRectangle;top=0;left=0;right=0;bottom=0;html=1;align=left;verticalAlign=top;fillColor=none;spacingLeft=34;spacingRight=4;whiteSpace=wrap;overflow=hidden;rotatable=0;points=[[0,0.5],[1,0.5]];portConstraint=eastwest;dropTarget=0;" vertex="1" parent="l7ajoWXJGJrli_pLDiKM-45">
          <mxGeometry y="140" width="170" height="28" as="geometry" />
        </mxCell>
        <mxCell id="l7ajoWXJGJrli_pLDiKM-55" value="" style="shape=partialRectangle;top=0;left=0;bottom=0;html=1;fillColor=none;align=left;verticalAlign=top;spacingLeft=4;spacingRight=4;whiteSpace=wrap;overflow=hidden;rotatable=0;points=[];portConstraint=eastwest;part=1;" connectable="0" vertex="1" parent="l7ajoWXJGJrli_pLDiKM-54">
          <mxGeometry width="30" height="28" as="geometry" />
        </mxCell>
        <mxCell id="l7ajoWXJGJrli_pLDiKM-56" value="int width" style="shape=partialRectangle;top=0;left=0;right=0;bottom=0;html=1;align=left;verticalAlign=top;fillColor=none;spacingLeft=34;spacingRight=4;whiteSpace=wrap;overflow=hidden;rotatable=0;points=[[0,0.5],[1,0.5]];portConstraint=eastwest;dropTarget=0;" vertex="1" parent="l7ajoWXJGJrli_pLDiKM-45">
          <mxGeometry y="168" width="170" height="28" as="geometry" />
        </mxCell>
        <mxCell id="l7ajoWXJGJrli_pLDiKM-57" value="" style="shape=partialRectangle;top=0;left=0;bottom=0;html=1;fillColor=none;align=left;verticalAlign=top;spacingLeft=4;spacingRight=4;whiteSpace=wrap;overflow=hidden;rotatable=0;points=[];portConstraint=eastwest;part=1;" connectable="0" vertex="1" parent="l7ajoWXJGJrli_pLDiKM-56">
          <mxGeometry width="30" height="28" as="geometry" />
        </mxCell>
        <mxCell id="l7ajoWXJGJrli_pLDiKM-58" value="User" style="swimlane;html=1;fontStyle=0;childLayout=stackLayout;horizontal=1;startSize=26;fillColor=#e0e0e0;horizontalStack=0;resizeParent=1;resizeLast=0;collapsible=1;marginBottom=0;swimlaneFillColor=#ffffff;align=center;rounded=0;shadow=0;comic=0;labelBackgroundColor=none;strokeWidth=1;fontFamily=Verdana;fontSize=14" vertex="1" parent="1">
          <mxGeometry x="260" y="380" width="190" height="56" as="geometry" />
        </mxCell>
        <mxCell id="l7ajoWXJGJrli_pLDiKM-59" value="int id" style="shape=partialRectangle;top=0;left=0;right=0;bottom=1;html=1;align=left;verticalAlign=middle;fillColor=none;spacingLeft=34;spacingRight=4;whiteSpace=wrap;overflow=hidden;rotatable=0;points=[[0,0.5],[1,0.5]];portConstraint=eastwest;dropTarget=0;fontStyle=5;" vertex="1" parent="l7ajoWXJGJrli_pLDiKM-58">
          <mxGeometry y="26" width="190" height="30" as="geometry" />
        </mxCell>
        <mxCell id="l7ajoWXJGJrli_pLDiKM-60" value="PK" style="shape=partialRectangle;top=0;left=0;bottom=0;html=1;fillColor=none;align=left;verticalAlign=middle;spacingLeft=4;spacingRight=4;whiteSpace=wrap;overflow=hidden;rotatable=0;points=[];portConstraint=eastwest;part=1;" connectable="0" vertex="1" parent="l7ajoWXJGJrli_pLDiKM-59">
          <mxGeometry width="30" height="30" as="geometry" />
        </mxCell>
        <mxCell id="l7ajoWXJGJrli_pLDiKM-61" value="This table doesn&#39;t actually exist, it just stands in for the user data." style="shape=note;whiteSpace=wrap;html=1;backgroundOutline=1;darkOpacity=0.05;size=12;" vertex="1" parent="1">
          <mxGeometry x="255" y="290" width="200" height="50" as="geometry" />
        </mxCell>
        <mxCell id="l7ajoWXJGJrli_pLDiKM-62" value="" style="endArrow=none;dashed=1;html=1;rounded=0;fontSize=12;startSize=8;endSize=8;curved=1;" edge="1" parent="1" source="l7ajoWXJGJrli_pLDiKM-58" target="l7ajoWXJGJrli_pLDiKM-61">
          <mxGeometry width="50" height="50" relative="1" as="geometry">
            <mxPoint x="120" y="470" as="sourcePoint" />
            <mxPoint x="170" y="420" as="targetPoint" />
          </mxGeometry>
        </mxCell>
        <mxCell id="l7ajoWXJGJrli_pLDiKM-63" style="edgeStyle=none;curved=1;rounded=0;orthogonalLoop=1;jettySize=auto;html=1;fontSize=12;startSize=8;endSize=8;endArrow=ERzeroToMany;endFill=0;entryX=0;entryY=0.5;entryDx=0;entryDy=0;exitX=1;exitY=0.5;exitDx=0;exitDy=0;startArrow=ERone;startFill=0;" edge="1" parent="1" source="l7ajoWXJGJrli_pLDiKM-59" target="l7ajoWXJGJrli_pLDiKM-17">
          <mxGeometry relative="1" as="geometry" />
        </mxCell>
        <mxCell id="l7ajoWXJGJrli_pLDiKM-64" style="edgeStyle=none;curved=1;rounded=0;orthogonalLoop=1;jettySize=auto;html=1;fontSize=12;startSize=8;endSize=8;endArrow=ERzeroToOne;endFill=0;startArrow=ERoneToMany;startFill=0;exitX=1;exitY=0.5;exitDx=0;exitDy=0;entryX=0;entryY=0.5;entryDx=0;entryDy=0;" edge="1" parent="1" source="l7ajoWXJGJrli_pLDiKM-23" target="l7ajoWXJGJrli_pLDiKM-66">
          <mxGeometry relative="1" as="geometry">
            <mxPoint x="800" y="700" as="sourcePoint" />
            <mxPoint x="790" y="390" as="targetPoint" />
          </mxGeometry>
        </mxCell>
        <mxCell id="l7ajoWXJGJrli_pLDiKM-65" value="NonTilingAreaScheme" style="swimlane;html=1;fontStyle=0;childLayout=stackLayout;horizontal=1;startSize=26;fillColor=#e0e0e0;horizontalStack=0;resizeParent=1;resizeLast=0;collapsible=1;marginBottom=0;swimlaneFillColor=#ffffff;align=center;rounded=0;shadow=0;comic=0;labelBackgroundColor=none;strokeWidth=1;fontFamily=Verdana;fontSize=14" vertex="1" parent="1">
          <mxGeometry x="780" y="470" width="170" height="108" as="geometry" />
        </mxCell>
        <mxCell id="l7ajoWXJGJrli_pLDiKM-66" value="int id" style="shape=partialRectangle;top=0;left=0;right=0;bottom=1;html=1;align=left;verticalAlign=middle;fillColor=none;spacingLeft=34;spacingRight=4;whiteSpace=wrap;overflow=hidden;rotatable=0;points=[[0,0.5],[1,0.5]];portConstraint=eastwest;dropTarget=0;fontStyle=5;" vertex="1" parent="l7ajoWXJGJrli_pLDiKM-65">
          <mxGeometry y="26" width="170" height="30" as="geometry" />
        </mxCell>
        <mxCell id="l7ajoWXJGJrli_pLDiKM-67" value="PK" style="shape=partialRectangle;top=0;left=0;bottom=0;html=1;fillColor=none;align=left;verticalAlign=middle;spacingLeft=4;spacingRight=4;whiteSpace=wrap;overflow=hidden;rotatable=0;points=[];portConstraint=eastwest;part=1;" connectable="0" vertex="1" parent="l7ajoWXJGJrli_pLDiKM-66">
          <mxGeometry width="30" height="30" as="geometry" />
        </mxCell>
        <mxCell id="l7ajoWXJGJrli_pLDiKM-68" value="varchar name" style="shape=partialRectangle;top=0;left=0;right=0;bottom=0;html=1;align=left;verticalAlign=top;fillColor=none;spacingLeft=34;spacingRight=4;whiteSpace=wrap;overflow=hidden;rotatable=0;points=[[0,0.5],[1,0.5]];portConstraint=eastwest;dropTarget=0;" vertex="1" parent="l7ajoWXJGJrli_pLDiKM-65">
          <mxGeometry y="56" width="170" height="26" as="geometry" />
        </mxCell>
        <mxCell id="l7ajoWXJGJrli_pLDiKM-69" value="" style="shape=partialRectangle;top=0;left=0;bottom=0;html=1;fillColor=none;align=left;verticalAlign=top;spacingLeft=4;spacingRight=4;whiteSpace=wrap;overflow=hidden;rotatable=0;points=[];portConstraint=eastwest;part=1;" connectable="0" vertex="1" parent="l7ajoWXJGJrli_pLDiKM-68">
          <mxGeometry width="30" height="26" as="geometry" />
        </mxCell>
        <mxCell id="l7ajoWXJGJrli_pLDiKM-70" value="varchar description" style="shape=partialRectangle;top=0;left=0;right=0;bottom=0;html=1;align=left;verticalAlign=top;fillColor=none;spacingLeft=34;spacingRight=4;whiteSpace=wrap;overflow=hidden;rotatable=0;points=[[0,0.5],[1,0.5]];portConstraint=eastwest;dropTarget=0;" vertex="1" parent="l7ajoWXJGJrli_pLDiKM-65">
          <mxGeometry y="82" width="170" height="26" as="geometry" />
        </mxCell>
        <mxCell id="l7ajoWXJGJrli_pLDiKM-71" value="" style="shape=partialRectangle;top=0;left=0;bottom=0;html=1;fillColor=none;align=left;verticalAlign=top;spacingLeft=4;spacingRight=4;whiteSpace=wrap;overflow=hidden;rotatable=0;points=[];portConstraint=eastwest;part=1;" connectable="0" vertex="1" parent="l7ajoWXJGJrli_pLDiKM-70">
          <mxGeometry width="30" height="26" as="geometry" />
        </mxCell>
        <mxCell id="l7ajoWXJGJrli_pLDiKM-72" style="edgeStyle=none;curved=1;rounded=0;orthogonalLoop=1;jettySize=auto;html=1;fontSize=12;startSize=8;endSize=8;endArrow=ERone;endFill=0;entryX=1;entryY=0.5;entryDx=0;entryDy=0;exitX=0;exitY=0.5;exitDx=0;exitDy=0;startArrow=ERoneToMany;startFill=0;" edge="1" parent="1" source="l7ajoWXJGJrli_pLDiKM-48" target="l7ajoWXJGJrli_pLDiKM-66">
          <mxGeometry relative="1" as="geometry">
            <mxPoint x="950" y="470" as="sourcePoint" />
            <mxPoint x="980" y="486" as="targetPoint" />
          </mxGeometry>
        </mxCell>
      </root>
    </mxGraphModel>
  </diagram>
</mxfile>
